# xmcd
#
# Track frame offsets: 
#        150
#        15337
#        26750
#        40712
#        56675
#        69787
#        80125
#        92875
#        103425
#        115887
#        127012
#        150237
#        167887
#        181987
#        202675
#        215637
#        229650
#        250137
#
# Disc length: 3727 seconds
#
# Revision: 0
# Processed by: cddbd v1.5.2PL0 Copyright (c) Steve Scherf et al.
# Submitted via: ExactAudioCopyFreeDBPlugin 1.0
#
DISCID=ed0e8d12
DTITLE=Various Artist - 巨星與名曲
DYEAR=1900
DGENRE=粵語流行曲
TTITLE0=羅文 - 前程錦繡
TTITLE1=徐小鳳 - 勁草嬌花
TTITLE2=徐小鳳 - 痴情淚
TTITLE3=徐小明 - 再向虎山行
TTITLE4=徐小明 - 班馬線
TTITLE5=徐小明 - 獅子山下
TTITLE6=徐小明 - 七弦琴
TTITLE7=鄭君綿 -  賭仔自嘆
TTITLE8=鄭君綿 - 明星之歌
TTITLE9=汪明荃 -  採荼山歌
TTITLE10=鄭錦昌 - 新禪院中聲
TTITLE11=鄭錦昌 - 幾度夕陽紅
TTITLE12=鄭錦昌 - 鴛鴦江
TTITLE13=鄭少秋、珍珍、珮珮 - 天涯孤客
TTITLE14=鄭少秋、珍珍、珮珮 - 戲水鴛鴦
TTITLE15=鄭少秋 - 醒獅
TTITLE16=鄭少秋、珮珮 - 帝女花
TTITLE17=洗劍麗 - 新一縷柔情
EXTD=
EXTT0=
EXTT1=
EXTT2=
EXTT3=
EXTT4=
EXTT5=
EXTT6=
EXTT7=
EXTT8=
EXTT9=
EXTT10=
EXTT11=
EXTT12=
EXTT13=
EXTT14=
EXTT15=
EXTT16=
EXTT17=
PLAYORDER=
